<svg xmlns="http://www.w3.org/2000/svg" xmlns:xlink="http://www.w3.org/1999/xlink" viewBox="0 0 479.333 202.771"><defs><filter id="luminosity-noclip" x="234.162" y="-8033.917" width="11" height="32766" filterUnits="userSpaceOnUse" color-interpolation-filters="sRGB"><feFlood flood-color="#fff" result="bg"/><feBlend in="SourceGraphic" in2="bg"/></filter><mask id="mask" x="234.162" y="-8033.917" width="11" height="32766" maskUnits="userSpaceOnUse"><g style="filter:url(#luminosity-noclip)"/></mask></defs><title>Logo</title><g id="Contenitore_testo" data-name="Contenitore testo"><rect x="2.582" y="47.975" width="474.16" height="105.24" rx="52.62" style="stroke:#000;stroke-linecap:round;stroke-linejoin:round;stroke-width:5px"/><path d="M49.864,125.21a2.583,2.583,0,0,1-2.593-2.592V79.269a2.583,2.583,0,0,1,2.593-2.592h7.344c8.641,0,12.674,4.9,12.674,14.257v20.019c0,9.36-4.033,14.257-12.674,14.257Zm4.536-41.4v34.275h2.808c3.817,0,5.4-2.3,5.4-7.128V90.934c0-4.824-1.584-7.128-5.4-7.128Z" style="fill:#fff"/><path d="M75.783,90.718c0-9.072,3.96-14.041,11.809-14.041,7.921,0,11.809,4.9,11.809,14.041V111.1c0,5.689-1.512,9-3.744,11.234a11.194,11.194,0,0,1-8.065,2.88,11.138,11.138,0,0,1-7.993-2.88c-2.231-2.233-3.816-5.545-3.816-11.234Zm7.2,20.378c0,4.753,1.512,6.985,4.608,6.985,3.025,0,4.609-2.088,4.609-6.985V90.718c0-4.824-1.512-6.912-4.609-6.912-3.168,0-4.608,2.232-4.608,6.912Z" style="fill:#fff"/><path d="M105.014,110.161a2.582,2.582,0,0,1,2.593-2.593h2.016a2.628,2.628,0,0,1,2.592,2.593v.935c0,3.456.649,5.113,1.656,5.977a4.227,4.227,0,0,0,3.025.936c3.024,0,4.68-1.3,4.68-5.113,0-3.384-3.312-6.048-6.84-8.784v.072c-4.753-3.745-9.722-7.633-9.722-14.761,0-8.137,4.249-12.818,11.882-12.818,7.776,0,11.881,4.969,11.881,14.113v1.009a2.581,2.581,0,0,1-2.593,2.592h-2.016a2.581,2.581,0,0,1-2.592-2.592V90.718c0-4.752-1.512-6.912-4.68-6.912-3.025,0-4.681,1.657-4.681,5.4,0,3.672,3.528,6.48,7.057,9.217H119.2c4.752,3.671,9.577,7.344,9.577,14.329,0,8.064-4.248,12.384-11.881,12.384-7.921,0-11.882-4.608-11.882-14.041Z" style="fill:#fff"/><path d="M133.67,90.718c0-9.072,3.96-14.041,11.809-14.041,7.921,0,11.809,4.9,11.809,14.041V111.1c0,5.689-1.512,9-3.744,11.234a12.632,12.632,0,0,1-16.058,0c-2.232-2.233-3.816-5.545-3.816-11.234Zm7.2,20.378c0,4.753,1.513,6.985,4.609,6.985,3.024,0,4.608-2.088,4.608-6.985V90.718c0-4.824-1.511-6.912-4.608-6.912-3.168,0-4.609,2.232-4.609,6.912Z" style="fill:#fff"/><path d="M324.83,125.209a2.582,2.582,0,0,1-2.592-2.592V79.268a2.582,2.582,0,0,1,2.592-2.592h7.128c8.425,0,12.169,4.609,12.169,13.9,0,6.7-3.1,10.369-3.1,10.369,1.872,2.3,3.1,5.976,3.1,10.368,0,9.289-3.744,13.9-12.169,13.9Zm4.609-41.4V97.342h2.519c3.529,0,4.969-1.944,4.969-6.768s-1.44-6.769-4.969-6.769Zm0,20.665v13.61h2.519c3.529,0,4.969-1.945,4.969-6.769,0-4.9-1.44-6.841-4.969-6.841Z" style="fill:#fff"/><path d="M372.783,122.545a2.581,2.581,0,0,1-2.592,2.591h-2.017a2.581,2.581,0,0,1-2.592-2.591V110.519c0-3.6-2.016-5.616-5.545-5.616H356.8v17.642a2.566,2.566,0,0,1-2.52,2.591h-2.016a2.581,2.581,0,0,1-2.593-2.591V79.2a2.583,2.583,0,0,1,2.593-2.593h9.072c8.858,0,11.953,4.465,11.953,14.113,0,4.465-.792,8.065-3.023,10.3-.217.216-.36.361-.576.576,2.088,2.233,3.1,5.185,3.1,8.929ZM356.8,97.631h3.24c4.033,0,6.122-2.017,6.122-6.914s-1.081-6.912-4.826-6.912H356.8Z" style="fill:#fff"/><path d="M396.326,76.676a2.581,2.581,0,0,1,2.591,2.592v1.945a2.58,2.58,0,0,1-2.591,2.592H385.309V97.342h9.072a2.582,2.582,0,0,1,2.593,2.592v1.945a2.581,2.581,0,0,1-2.593,2.591h-9.072v13.61h11.017a2.581,2.581,0,0,1,2.591,2.593v1.944a2.581,2.581,0,0,1-2.591,2.592H380.772a2.582,2.582,0,0,1-2.592-2.592V79.268a2.582,2.582,0,0,1,2.592-2.592Z" style="fill:#fff"/><path d="M427.934,100.51l3.24-21.673a2.633,2.633,0,0,1,2.593-2.161h2.088a2.6,2.6,0,0,1,2.592,2.953l-6.912,43.42a2.767,2.767,0,0,1-2.592,2.16h-1.657a2.685,2.685,0,0,1-2.52-2.088L420.95,100.15l-3.889,22.971a2.685,2.685,0,0,1-2.52,2.088h-1.585a2.686,2.686,0,0,1-2.519-2.16l-7.057-43.42a2.508,2.508,0,0,1,2.52-2.953h2.089a2.69,2.69,0,0,1,2.591,2.161l3.313,21.818,3.744-21.891a2.685,2.685,0,0,1,2.521-2.088h1.584a2.685,2.685,0,0,1,2.52,2.088Z" style="fill:#fff"/></g><g id="Luppolo"><path d="M170.853,90.066h-.01" style="fill:#fff;stroke:#000;stroke-linecap:round;stroke-linejoin:round;stroke-width:11px"/><path d="M227.965,92.772c-.519,4.82-5.1,13.856-11.623,22.68-5.394,7.3-12.123,14.468-18.991,18.982-4.134,2.734-8.323,4.5-12.3,4.764-.009-.009-.019-.019-.019-.028A83,83,0,0,1,181.307,89.9c8.416-1.252,20.845-5.506,33.265-18.5C216.926,80.927,222.608,87.98,227.965,92.772Z" style="fill:#fff;stroke:#000;stroke-linecap:round;stroke-linejoin:round;stroke-width:11px"/><path d="M185.033,139.17c0,.009.01.019.01.028h.009" style="fill:#fff;stroke:#000;stroke-linecap:round;stroke-linejoin:round;stroke-width:11px"/><path d="M233.832,148.846c-3.559,6.952-9.843,12.309-15.636,16.257v.009c-3.689,2.521-7.183,4.477-9.648,5.923-12.049-13.282-11.2-36.6-11.2-36.6,6.868-4.514,13.6-11.678,18.991-18.982C216.342,115.452,222.089,137.14,233.832,148.846Z" style="fill:#fff;stroke:#000;stroke-linecap:round;stroke-linejoin:round;stroke-width:11px"/><path d="M261.128,165.1v.009c-.167.566-6.646,22.977-21.466,32.032-14.811-9.055-21.3-31.466-21.466-32.032V165.1c5.793-3.948,12.077-9.305,15.636-16.257a28.515,28.515,0,0,0,5.83,4.579,28.943,28.943,0,0,0,5.839-4.579C249.06,155.8,255.335,161.155,261.128,165.1Z" style="fill:#fff;stroke:#000;stroke-linecap:round;stroke-linejoin:round;stroke-width:11px"/><path d="M308.471,90.066a34.718,34.718,0,0,1-10.446-.167c-8.415-1.252-20.844-5.506-33.264-18.5a42.714,42.714,0,0,1-13.4,21.373,45.787,45.787,0,0,1-11.7,7.823,45.6,45.6,0,0,1-11.7-7.823c-5.357-4.792-11.039-11.845-13.393-21.373-12.42,12.994-24.849,17.248-33.265,18.5a34.536,34.536,0,0,1-10.454.167c3.225-35.415,32.8-63.165,68.809-63.165S305.246,54.651,308.471,90.066Z" style="fill:#fff;stroke:#000;stroke-linecap:round;stroke-linejoin:round;stroke-width:11px"/><path d="M308.49,90.066h-.019" style="fill:#fff;stroke:#000;stroke-linecap:round;stroke-linejoin:round;stroke-width:11px"/><path d="M294.29,139.17c0,.009-.009.019-.018.028-3.976-.269-8.166-2.03-12.3-4.764-6.867-4.514-13.6-11.678-18.991-18.982-6.525-8.824-11.1-17.86-11.622-22.68a42.714,42.714,0,0,0,13.4-21.373c12.42,12.994,24.849,17.248,33.264,18.5A82.955,82.955,0,0,1,294.29,139.17Z" style="fill:#fff;stroke:#000;stroke-linecap:round;stroke-linejoin:round;stroke-width:11px"/><path d="M294.272,139.2h.009c0-.009.009-.019.009-.028" style="fill:#fff;stroke:#000;stroke-linecap:round;stroke-linejoin:round;stroke-width:11px"/><path d="M262.981,115.452s-5.746,21.679-17.48,33.394a28.943,28.943,0,0,1-5.839,4.579,28.515,28.515,0,0,1-5.83-4.579c-11.743-11.706-17.49-33.394-17.49-33.394,6.525-8.824,11.1-17.86,11.623-22.68a45.6,45.6,0,0,0,11.7,7.823,45.787,45.787,0,0,0,11.7-7.823C251.878,97.592,256.456,106.628,262.981,115.452Z" style="fill:#fff;stroke:#000;stroke-linecap:round;stroke-linejoin:round;stroke-width:11px"/><path d="M270.785,171.035c-2.465-1.446-5.969-3.4-9.657-5.923V165.1c-5.793-3.948-12.068-9.305-15.627-16.257,11.734-11.715,17.48-33.394,17.48-33.394,5.395,7.3,12.124,14.468,18.991,18.982C281.972,134.434,282.834,157.753,270.785,171.035Z" style="fill:#fff;stroke:#000;stroke-linecap:round;stroke-linejoin:round;stroke-width:11px"/><g style="mask:url(#mask)"><line x1="239.662" y1="26.512" x2="239.662" y2="5.58" style="fill:#fff;stroke:#000;stroke-linecap:round;stroke-linejoin:round;stroke-width:11px"/></g></g></svg>